<svg width="26" height="26" viewBox="0 0 26 26" fill="none" xmlns="http://www.w3.org/2000/svg">
<g clip-path="url(#clip0_403_37)">
<path d="M13 2.34162C16.471 2.34162 16.8821 2.35625 18.2536 2.418C19.0778 2.4279 19.8941 2.57962 20.6667 2.8665C21.2319 3.07528 21.7428 3.4085 22.1617 3.8415C22.5947 4.26041 22.928 4.77136 23.1367 5.3365C23.4236 6.10917 23.5753 6.92547 23.5853 7.74963C23.647 9.12113 23.6616 9.53712 23.6616 13.0033C23.6616 16.4694 23.647 16.8854 23.5853 18.2569C23.5753 19.081 23.4236 19.8973 23.1367 20.67C22.9209 21.2308 22.5899 21.7401 22.165 22.165C21.7401 22.5899 21.2308 22.9209 20.67 23.1367C19.8973 23.4236 19.081 23.5753 18.2569 23.5853C16.8854 23.647 16.4694 23.6616 13.0033 23.6616C9.53712 23.6616 9.12113 23.647 7.74963 23.5853C6.92547 23.5753 6.10917 23.4236 5.3365 23.1367C4.77136 22.928 4.26041 22.5947 3.8415 22.1617C3.4085 21.7428 3.07528 21.2319 2.8665 20.6667C2.57962 19.8941 2.4279 19.0778 2.418 18.2536C2.35625 16.8821 2.34162 16.4661 2.34162 13C2.34162 9.53388 2.35625 9.11788 2.418 7.74638C2.4279 6.92222 2.57962 6.10593 2.8665 5.33325C3.07528 4.76811 3.4085 4.25716 3.8415 3.83825C4.26041 3.40525 4.77136 3.07203 5.3365 2.86325C6.10917 2.57637 6.92547 2.42465 7.74963 2.41475C9.12113 2.353 9.53712 2.33838 13.0033 2.33838L13 2.34162ZM13 0C9.46887 0 9.02687 0.014625 7.6375 0.078C6.56006 0.0999106 5.49412 0.304306 4.485 0.6825C3.61719 1.00841 2.83125 1.52035 2.18238 2.18238C1.52035 2.83125 1.00841 3.61719 0.6825 4.485C0.304306 5.49412 0.0999106 6.56006 0.078 7.6375C0.014625 9.02687 0 9.46887 0 13C0 16.5311 0.014625 16.9731 0.078 18.3625C0.0999106 19.4399 0.304306 20.5059 0.6825 21.515C1.00841 22.3828 1.52035 23.1688 2.18238 23.8176C2.83125 24.4796 3.61719 24.9916 4.485 25.3175C5.49515 25.6961 6.56221 25.9005 7.64075 25.922C9.02688 25.9854 9.46887 26 13 26C16.5311 26 16.9731 25.9854 18.3625 25.922C19.441 25.9005 20.5081 25.6961 21.5182 25.3175C22.3818 24.9832 23.166 24.4723 23.8208 23.8176C24.4756 23.1628 24.9865 22.3785 25.3207 21.515C25.6993 20.5048 25.9037 19.4378 25.9253 18.3593C25.9886 16.9731 26.0033 16.5311 26.0033 12.9967C26.0033 9.46238 25.9886 9.02363 25.9253 7.63425C25.9019 6.55771 25.6964 5.49291 25.3175 4.485C24.9916 3.61719 24.4796 2.83125 23.8176 2.18238C23.1688 1.52035 22.3828 1.00841 21.515 0.6825C20.5059 0.304306 19.4399 0.0999106 18.3625 0.078C16.9731 0.014625 16.5311 0 13 0Z" fill="black"/>
<path d="M12.9997 6.32422C11.6794 6.32422 10.3888 6.71573 9.29101 7.44924C8.19323 8.18276 7.33762 9.22533 6.83236 10.4451C6.32711 11.6649 6.19491 13.0071 6.45249 14.302C6.71007 15.597 7.34584 16.7864 8.27943 17.72C9.21302 18.6536 10.4025 19.2894 11.6974 19.547C12.9923 19.8045 14.3345 19.6723 15.5543 19.1671C16.7741 18.6618 17.8167 17.8062 18.5502 16.7084C19.2837 15.6106 19.6752 14.32 19.6752 12.9997C19.6752 12.1231 19.5026 11.255 19.1671 10.4451C18.8316 9.63521 18.3399 8.8993 17.72 8.27943C17.1001 7.65955 16.3642 7.16784 15.5543 6.83236C14.7444 6.49689 13.8764 6.32422 12.9997 6.32422ZM12.9997 17.3336C12.1426 17.3336 11.3047 17.0794 10.5919 16.6032C9.87925 16.127 9.32376 15.4501 8.99574 14.6582C8.66772 13.8663 8.5819 12.9949 8.74912 12.1542C8.91634 11.3135 9.32911 10.5413 9.93521 9.93521C10.5413 9.3291 11.3135 8.91634 12.1542 8.74912C12.9949 8.58189 13.8663 8.66772 14.6582 8.99574C15.4501 9.32376 16.127 9.87925 16.6032 10.5919C17.0794 11.3046 17.3336 12.1426 17.3336 12.9997C17.3336 14.1491 16.877 15.2515 16.0642 16.0642C15.2515 16.877 14.1491 17.3336 12.9997 17.3336Z" fill="black"/>
<path d="M19.9389 7.62195C20.8005 7.62195 21.4989 6.92352 21.4989 6.06195C21.4989 5.20039 20.8005 4.50195 19.9389 4.50195C19.0773 4.50195 18.3789 5.20039 18.3789 6.06195C18.3789 6.92352 19.0773 7.62195 19.9389 7.62195Z" fill="black"/>
</g>
<defs>
<clipPath id="clip0_403_37">
<rect width="26" height="26" fill="white"/>
</clipPath>
</defs>
</svg>
