<svg width="26" height="26" viewBox="0 0 26 26" fill="none" xmlns="http://www.w3.org/2000/svg">
<path fill-rule="evenodd" clip-rule="evenodd" d="M21.9944 0H4.00562C1.794 0 0 1.794 0 4.00562V21.9928C0 24.206 1.794 26 4.00562 26H21.9928C24.206 26 26 24.206 26 21.9944V4.00562C26 1.794 24.206 0 21.9944 0ZM21.3444 18.3056H19.1571C18.4437 18.3056 18.3544 17.7856 17.0446 16.5344C15.9396 15.4456 15.4668 15.3595 15.2003 15.3595C14.9614 15.3595 14.7989 15.5382 14.7989 15.9542V17.6199C14.7989 18.1106 14.5161 18.304 13.3559 18.304C11.4514 18.304 9.33887 17.1291 7.73175 14.9565C5.3365 11.7276 4.7255 9.31775 4.7255 8.79613C4.7255 8.51338 4.9335 8.32 5.21625 8.32H7.16462C7.67 8.32 7.86337 8.4695 8.04212 9.00412C8.93425 11.622 10.5267 13.9295 11.1962 13.9295C11.4497 13.9295 11.479 13.7215 11.479 13.1853V10.5235C11.479 9.23325 10.7494 9.12438 10.7494 8.64825C10.7494 8.45975 10.8989 8.32162 11.1361 8.32162H14.261C14.677 8.32162 14.7371 8.47113 14.7371 8.9765V12.5921C14.7371 13.0049 14.8216 13.1576 15.0052 13.1576C15.2327 13.1576 15.4424 13.0195 15.8535 12.5629C17.1356 11.1475 18.1903 8.90338 18.1903 8.90338C18.3235 8.62063 18.4876 8.42725 18.9345 8.42725C19.5894 8.42725 20.8829 8.42725 20.8829 8.42725C21.2696 8.42725 21.4338 8.63525 21.359 9.00738C21.1364 10.049 18.889 13.2177 18.889 13.2177C18.681 13.5444 18.5916 13.7231 18.889 14.0367C19.097 14.3049 19.7519 14.885 20.1533 15.4196C21.1348 16.4613 21.775 17.3388 21.775 17.8295C21.7766 18.2 21.567 18.3056 21.3444 18.3056Z" fill="black"/>
</svg>
