<svg width="26" height="20" viewBox="0 0 26 20" fill="none" xmlns="http://www.w3.org/2000/svg">
<path d="M25.675 4.55C25.35 2.4375 24.375 0.975 22.1 0.65C18.525 1.45286e-07 13 0 13 0C13 0 7.475 1.45286e-07 3.9 0.65C1.625 0.975 0.4875 2.4375 0.325 4.55C0 6.6625 0 9.75 0 9.75C0 9.75 0 12.8375 0.325 14.95C0.65 17.0625 1.625 18.525 3.9 18.85C7.475 19.5 13 19.5 13 19.5C13 19.5 18.525 19.5 22.1 18.85C24.375 18.3625 25.35 17.0625 25.675 14.95C26 12.8375 26 9.75 26 9.75C26 9.75 26 6.6625 25.675 4.55ZM9.75 14.625V4.875L17.875 9.75L9.75 14.625Z" fill="black"/>
</svg>
