<svg width="26" height="21" viewBox="0 0 26 21" fill="none" xmlns="http://www.w3.org/2000/svg">
<path d="M26 2.42308C25.025 2.90769 24.05 3.06923 22.9125 3.23077C24.05 2.58462 24.8625 1.61538 25.1875 0.323077C24.2125 0.969231 23.075 1.29231 21.775 1.61538C20.8 0.646154 19.3375 0 17.875 0C15.1125 0 12.675 2.42308 12.675 5.33077C12.675 5.81538 12.675 6.13846 12.8375 6.46154C8.45 6.3 4.3875 4.2 1.7875 0.969231C1.3 1.77692 1.1375 2.58462 1.1375 3.71538C1.1375 5.49231 2.1125 7.10769 3.575 8.07692C2.7625 8.07692 1.95 7.75385 1.1375 7.43077C1.1375 10.0154 2.925 12.1154 5.3625 12.6C4.875 12.7615 4.3875 12.7615 3.9 12.7615C3.575 12.7615 3.25 12.7615 2.925 12.6C3.575 14.7 5.525 16.3154 7.9625 16.3154C6.175 17.7692 3.9 18.5769 1.3 18.5769C0.8125 18.5769 0.4875 18.5769 0 18.5769C2.4375 20.0308 5.2 21 8.125 21C17.875 21 23.2375 12.9231 23.2375 5.97692C23.2375 5.81538 23.2375 5.49231 23.2375 5.33077C24.375 4.52308 25.35 3.55385 26 2.42308Z" fill="black"/>
</svg>
